<?xml version="1.0" encoding="UTF-8" standalone="no"?>
<svg
   xmlns:dc="http://purl.org/dc/elements/1.1/"
   xmlns:cc="http://creativecommons.org/ns#"
   xmlns:rdf="http://www.w3.org/1999/02/22-rdf-syntax-ns#"
   xmlns:svg="http://www.w3.org/2000/svg"
   xmlns="http://www.w3.org/2000/svg"
   xmlns:sodipodi="http://sodipodi.sourceforge.net/DTD/sodipodi-0.dtd"
   xmlns:inkscape="http://www.inkscape.org/namespaces/inkscape"
   width="107.70195mm"
   height="18.801952mm"
   viewBox="0 0 107.70195 18.801952"
   version="1.1"
   id="svg1028"
   inkscape:version="1.0.1 (3bc2e813f5, 2020-09-07)"
   sodipodi:docname="pdfget.svg">
  <defs
     id="defs1022" />
  <sodipodi:namedview
     id="base"
     pagecolor="#ffffff"
     bordercolor="#666666"
     borderopacity="1.0"
     inkscape:pageopacity="0.0"
     inkscape:pageshadow="2"
     inkscape:zoom="1.4"
     inkscape:cx="46.66866"
     inkscape:cy="74.639879"
     inkscape:document-units="mm"
     inkscape:current-layer="layer1"
     inkscape:document-rotation="0"
     showgrid="false"
     inkscape:pagecheckerboard="true"
     fit-margin-top="0"
     fit-margin-left="0"
     fit-margin-right="0"
     fit-margin-bottom="0"
     inkscape:window-width="1920"
     inkscape:window-height="1121"
     inkscape:window-x="-9"
     inkscape:window-y="-9"
     inkscape:window-maximized="1" />
  <metadata
     id="metadata1025">
    <rdf:RDF>
      <cc:Work
         rdf:about="">
        <dc:format>image/svg+xml</dc:format>
        <dc:type
           rdf:resource="http://purl.org/dc/dcmitype/StillImage" />
        <dc:title></dc:title>
      </cc:Work>
    </rdf:RDF>
  </metadata>
  <g
     inkscape:label="Layer 1"
     inkscape:groupmode="layer"
     id="layer1"
     transform="translate(-34.989371,-29.08208)">
    <g
       aria-label="PDF GET"
       id="text1593"
       style="font-style:normal;font-variant:normal;font-weight:bold;font-stretch:normal;font-size:25.4px;line-height:1.25;font-family:Arial;-inkscape-font-specification:'Arial, Bold';font-variant-ligatures:normal;font-variant-caps:normal;font-variant-numeric:normal;font-variant-east-asian:normal;fill:#000000;fill-opacity:1;stroke:none;stroke-width:0.264583">
      <path
         d="M 34.989371,47.573975 V 29.392139 h 5.891114 q 3.348632,0 4.365625,0.272852 1.562695,0.409277 2.616894,1.785937 1.054199,1.364258 1.054199,3.534668 0,1.674316 -0.607715,2.815332 -0.607714,1.141015 -1.550292,1.79834 -0.930176,0.644922 -1.897559,0.855761 -1.314648,0.26045 -3.80752,0.26045 h -2.393652 v 6.858496 z M 38.660465,32.46792 v 5.159375 h 2.00918 q 2.17041,0 2.902148,-0.285254 0.731738,-0.285254 1.141016,-0.892969 0.421679,-0.607714 0.421679,-1.413867 0,-0.992187 -0.58291,-1.637109 -0.58291,-0.644922 -1.475879,-0.806152 Q 42.418375,32.46792 40.434,32.46792 Z"
         style="font-style:normal;font-variant:normal;font-weight:bold;font-stretch:normal;font-size:25.4px;font-family:Arial;-inkscape-font-specification:'Arial, Bold';font-variant-ligatures:normal;font-variant-caps:normal;font-variant-numeric:normal;font-variant-east-asian:normal;stroke-width:0.264583"
         id="path1595" />
      <path
         d="m 51.91857,29.392139 h 6.709668 q 2.269629,0 3.460254,0.347266 1.599902,0.471289 2.740918,1.674316 1.141015,1.203027 1.736328,2.951758 0.595312,1.736328 0.595312,4.291211 0,2.244824 -0.558105,3.869531 -0.682129,1.984375 -1.947168,3.212207 -0.954981,0.930176 -2.579688,1.451074 -1.215429,0.384473 -3.249414,0.384473 H 51.91857 Z m 3.671094,3.075781 v 12.042676 h 2.740918 q 1.53789,0 2.220019,-0.173633 0.892969,-0.223242 1.475879,-0.756543 0.595312,-0.533301 0.967383,-1.74873 0.37207,-1.227832 0.37207,-3.336231 0,-2.108398 -0.37207,-3.237012 -0.372071,-1.128613 -1.041797,-1.761132 -0.669727,-0.63252 -1.699121,-0.855762 -0.768946,-0.173633 -3.01377,-0.173633 z"
         style="font-style:normal;font-variant:normal;font-weight:bold;font-stretch:normal;font-size:25.4px;font-family:Arial;-inkscape-font-specification:'Arial, Bold';font-variant-ligatures:normal;font-variant-caps:normal;font-variant-numeric:normal;font-variant-east-asian:normal;stroke-width:0.264583"
         id="path1597" />
      <path
         d="M 70.298844,47.573975 V 29.392139 h 12.464355 v 3.075781 h -8.793261 v 4.303613 h 7.590234 v 3.075782 h -7.590234 v 7.72666 z"
         style="font-style:normal;font-variant:normal;font-weight:bold;font-stretch:normal;font-size:25.4px;font-family:Arial;-inkscape-font-specification:'Arial, Bold';font-variant-ligatures:normal;font-variant-caps:normal;font-variant-numeric:normal;font-variant-east-asian:normal;stroke-width:0.264583"
         id="path1599" />
      <path
         d="m 101.3047,40.889111 v -3.063378 h 7.9127 v 7.242968 q -1.15342,1.116211 -3.34863,1.971973 -2.18282,0.843359 -4.42764,0.843359 -2.85254,0 -4.973341,-1.190625 -2.1208,-1.203027 -3.187402,-3.423047 -1.066601,-2.232421 -1.066601,-4.849316 0,-2.840137 1.190625,-5.047754 1.190624,-2.207617 3.485058,-3.38584 1.748731,-0.905371 4.353221,-0.905371 3.38584,0 5.2834,1.42627 1.90996,1.413867 2.45566,3.91914 l -3.64628,0.682129 q -0.38448,-1.339453 -1.45108,-2.108398 -1.0542,-0.781348 -2.6417,-0.781348 -2.406053,0 -3.832323,1.525489 -1.413867,1.525488 -1.413867,4.526855 0,3.237012 1.438672,4.861719 1.438672,1.612304 3.770308,1.612304 1.15342,0 2.30684,-0.446484 1.16582,-0.458887 1.99678,-1.103809 v -2.306836 z"
         style="font-style:normal;font-variant:normal;font-weight:bold;font-stretch:normal;font-size:25.4px;font-family:Arial;-inkscape-font-specification:'Arial, Bold';font-variant-ligatures:normal;font-variant-caps:normal;font-variant-numeric:normal;font-variant-east-asian:normal;stroke-width:0.264583"
         id="path1601" />
      <path
         d="M 112.60323,47.573975 V 29.392139 h 13.48135 v 3.075781 h -9.81025 v 4.030762 h 9.12812 v 3.063379 h -9.12812 v 4.948535 h 10.15752 v 3.063379 z"
         style="font-style:normal;font-variant:normal;font-weight:bold;font-stretch:normal;font-size:25.4px;font-family:Arial;-inkscape-font-specification:'Arial, Bold';font-variant-ligatures:normal;font-variant-caps:normal;font-variant-numeric:normal;font-variant-east-asian:normal;stroke-width:0.264583"
         id="path1603" />
      <path
         d="M 133.63761,47.573975 V 32.46792 h -5.39502 v -3.075781 h 14.44873 v 3.075781 h -5.38262 v 15.106055 z"
         style="font-style:normal;font-variant:normal;font-weight:bold;font-stretch:normal;font-size:25.4px;font-family:Arial;-inkscape-font-specification:'Arial, Bold';font-variant-ligatures:normal;font-variant-caps:normal;font-variant-numeric:normal;font-variant-east-asian:normal;stroke-width:0.264583"
         id="path1605" />
    </g>
  </g>
</svg>
